<svg width="504.9" height="163.13362595085093" viewBox="0 0 370.00000000000006 119.5473194727963" xmlns="http://www.w3.org/2000/svg"><defs id="SvgjsDefs1156"></defs><g id="SvgjsG1157" featurekey="S6ay6y-0" transform="matrix(1.4403291940689087,0,0,1.4403291940689087,-37.01646026094255,-12.24279777733456)" fill="#4c102a"><path xmlns="http://www.w3.org/2000/svg" d="M28.2,73c0,0,16.9,2.9,29.7-10.4c-7,10.3-17.7,22.2-32.2,28.9c0,0,38.7-12.1,42.6-47.6  C68.3,43.9,59,65.2,28.2,73z"></path><circle xmlns="http://www.w3.org/2000/svg" cx="70.6" cy="37.7" r="3.7"></circle><path xmlns="http://www.w3.org/2000/svg" d="M64.3,47.6c0,0,4.9-8.7-2.6-39.1c0,0,2.7,22.7-0.9,33.9c0,0-9,4.1-19.3-8.3C41.5,34.1,51.8,50.4,64.3,47.6z"></path></g><g id="SvgjsG1158" featurekey="j5pGhi-0" transform="matrix(2.370762348175049,0,0,2.370762348175049,85.87895219543265,27.720615271518934)" fill="#4c102a"><path d="M1.738281 4.902344 l2.880859 0 q2.490234 0 3.349609 0.214844 q1.25 0.3125 2.03125 1.259766 t0.78125 2.392578 q0 1.435547 -0.766602 2.37793 t-2.114258 1.264648 q-0.986328 0.234375 -3.681641 0.234375 l-1.035156 0 l0 6.738281 l-1.445312 0 l0 -14.482422 z M3.183594 6.308594 l0 4.921875 l2.460938 0.029297 q1.474609 0 2.163086 -0.268555 t1.083984 -0.878906 t0.395508 -1.342773 q0 -0.742187 -0.395508 -1.347656 t-1.040039 -0.859375 t-2.109375 -0.253906 l-2.558594 0 z M18.496094 8.203125 q2.470703 0 4.101563 1.787109 q1.503906 1.630859 1.503906 3.876953 q0.019531 5.546875 0 5.634766 l-1.455078 0 l0 -2.431641 q-1.142578 2.128906 -4.150391 2.382813 q-2.460937 0 -4.018555 -1.674805 t-1.557617 -3.911133 q0 -2.226562 1.474609 -3.867187 q1.630859 -1.796875 4.101563 -1.796875 z M18.496094 9.550781 q-1.708984 0 -2.939453 1.269531 t-1.230469 3.066406 q0 1.162109 0.629883 2.236328 t2.133789 1.816406 q3.769531 0.839844 5.361328 -3.427734 q0.087891 -1.367187 -0.292969 -2.617187 q-0.273437 -0.566406 -0.751953 -1.074219 q-1.201172 -1.269531 -2.910156 -1.269531 z M37.167969 10.703125 l-1.09375 0.683594 q-1.416016 -1.894531 -3.867187 -1.894531 q-1.962891 0 -3.256836 1.259766 t-1.293945 3.066406 q0 1.171875 0.595703 2.211914 t1.630859 1.606445 t2.324219 0.566406 q2.373047 0 3.867188 -1.875 l1.09375 0.712891 q-0.771484 1.152344 -2.06543 1.782227 t-2.954102 0.629883 q-2.529297 0 -4.204102 -1.611328 t-1.674805 -3.916016 q0 -1.5625 0.786133 -2.895508 t2.148438 -2.080078 t3.061523 -0.74707 q1.054688 0 2.045898 0.322266 t1.68457 0.844727 t1.171875 1.333008 z M48.818359 15.634766 l1.152344 0.615234 q-0.556641 1.123047 -1.308594 1.806641 t-1.689453 1.040039 t-2.119141 0.356445 q-2.617187 0 -4.091797 -1.713867 t-1.474609 -3.87207 q0 -2.041016 1.25 -3.632812 q1.582031 -2.03125 4.248047 -2.03125 q2.724609 0 4.365234 2.080078 q1.162109 1.464844 1.171875 3.652344 l-9.619141 0 q0.039063 1.875 1.191406 3.071289 t2.841797 1.196289 q0.820313 0 1.591797 -0.288086 t1.313477 -0.756836 t1.176758 -1.523437 z M48.818359 12.753906 q-0.273437 -1.103516 -0.800781 -1.762695 t-1.396484 -1.064453 t-1.826172 -0.405273 q-1.572266 0 -2.705078 1.015625 q-0.820312 0.742188 -1.240234 2.216797 l7.96875 0 z M58.222657 4.902344 l4.599609 0 q1.71875 0 2.646484 0.410156 t1.459961 1.259766 t0.532227 1.875 q0 0.966797 -0.473633 1.757813 t-1.391602 1.279297 q1.142578 0.390625 1.748047 0.90332 t0.947266 1.245117 t0.341797 1.591797 q0 1.748047 -1.279297 2.954102 t-3.417969 1.206055 l-5.712891 0 l0 -14.482422 z M59.638672 6.318359 l0 4.638672 l2.568359 0 q1.503906 0 2.211914 -0.283203 t1.123047 -0.883789 t0.415039 -1.342773 q0 -0.996094 -0.693359 -1.5625 t-2.207031 -0.566406 l-3.417969 0 z M59.638672 12.412109 l0 5.556641 l3.535156 0 q1.582031 0 2.319336 -0.3125 t1.186523 -0.966797 t0.449219 -1.435547 q0 -0.957031 -0.629883 -1.679687 t-1.733398 -0.986328 q-0.742187 -0.175781 -2.568359 -0.175781 l-2.558594 0 z M70.830078 8.476563 l1.386719 0 l0 5 q0 1.835938 0.195313 2.519531 q0.292969 0.986328 1.123047 1.557617 t1.992188 0.571289 q1.152344 0 1.953125 -0.556641 t1.103516 -1.464844 q0.214844 -0.615234 0.214844 -2.626953 l0 -5 l1.40625 0 l0 5.263672 q0 2.216797 -0.522461 3.334961 t-1.557617 1.748047 t-2.597656 0.629883 q-1.572266 0 -2.617187 -0.629883 t-1.5625 -1.767578 t-0.517578 -3.422852 l0 -5.15625 z M93.154297 17.363281 q0.878906 -1.464844 1.054688 -2.880859 q0 -10.166016 0 -10.146484 l-1.367187 0 l0 5.976563 q-0.869141 -1.064453 -1.943359 -1.586914 t-2.353516 -0.522461 q-2.265625 0 -3.876953 1.650391 t-1.611328 4.003906 q0 2.314453 1.621094 3.955078 t3.90625 1.640625 q1.308594 0 2.456055 -0.50293 t2.114258 -1.586914 z M88.701172 18.134766 q-1.162109 0 -2.133789 -0.571289 t-1.547852 -1.586914 t-0.576172 -2.167969 q0 -1.132812 0.581055 -2.172852 t1.5625 -1.611328 t2.094727 -0.571289 q1.132813 0 2.148438 0.571289 t1.5625 1.552734 t0.546875 2.192383 q0 1.865234 -1.230469 3.115234 t-3.007812 1.25 z M106.933594 17.363281 q0.878906 -1.464844 1.054688 -2.880859 q0 -10.166016 0 -10.146484 l-1.367187 0 l0 5.976563 q-0.869141 -1.064453 -1.943359 -1.586914 t-2.353516 -0.522461 q-2.265625 0 -3.876953 1.650391 t-1.611328 4.003906 q0 2.314453 1.621094 3.955078 t3.90625 1.640625 q1.308594 0 2.456055 -0.50293 t2.114258 -1.586914 z M102.480469 18.134766 q-1.162109 0 -2.133789 -0.571289 t-1.547852 -1.586914 t-0.576172 -2.167969 q0 -1.132812 0.581055 -2.172852 t1.5625 -1.611328 t2.094727 -0.571289 q1.132813 0 2.148438 0.571289 t1.5625 1.552734 t0.546875 2.192383 q0 1.865234 -1.230469 3.115234 t-3.007812 1.25 z M109.658203 8.476563 l1.455078 0 l3.681641 8.251953 l3.574219 -8.251953 l1.474609 0 l-6.396484 14.619141 l-1.455078 0 l2.060547 -4.716797 z"></path></g></svg>